<?xml version="1.0" encoding="UTF-8" standalone="no"?>
<!-- Created with Inkscape (http://www.inkscape.org/) -->

<svg
   width="800"
   height="450"
   viewBox="0 0 211.66666 119.0625"
   version="1.1"
   id="svg5"
   inkscape:version="1.2.2 (b0a8486541, 2022-12-01)"
   sodipodi:docname="ronde_02.svg"
   xml:space="preserve"
   xmlns:inkscape="http://www.inkscape.org/namespaces/inkscape"
   xmlns:sodipodi="http://sodipodi.sourceforge.net/DTD/sodipodi-0.dtd"
   xmlns="http://www.w3.org/2000/svg"
   xmlns:svg="http://www.w3.org/2000/svg"><sodipodi:namedview
     id="namedview7"
     pagecolor="#ffffff"
     bordercolor="#000000"
     borderopacity="0.25"
     inkscape:showpageshadow="2"
     inkscape:pageopacity="0.0"
     inkscape:pagecheckerboard="0"
     inkscape:deskcolor="#d1d1d1"
     inkscape:document-units="mm"
     showgrid="false"
     inkscape:zoom="0.70577197"
     inkscape:cx="-47.465756"
     inkscape:cy="389.64426"
     inkscape:window-width="1920"
     inkscape:window-height="1011"
     inkscape:window-x="0"
     inkscape:window-y="0"
     inkscape:window-maximized="1"
     inkscape:current-layer="layer1" /><defs
     id="defs2" /><g
     inkscape:label="Calque 1"
     inkscape:groupmode="layer"
     id="layer1"><g
       id="g5938"
       transform="translate(-60.465113,-0.2041162)"
       style="display:inline"><path
         style="fill:#ff0000;stroke-width:0.24"
         id="path1595-9"
         d="m 76.597455,14.966453 c -1.286105,1.5887 -1.491448,2.186013 -0.591112,4.079731 0.700379,1.246849 1.837792,2.17529 2.448772,3.470641 0.293074,0.966287 0.128775,1.938605 -0.214506,2.863733 -0.0864,0.223118 -0.209926,0.427091 -0.333891,0.630381 0,0 3.439839,1.988777 3.439839,1.988777 v 0 c 0.128685,-0.228425 0.257677,-0.457268 0.349269,-0.704003 0.360953,-1.01115 0.545688,-2.069271 0.317543,-3.13639 -0.07026,-0.198824 -0.117041,-0.407579 -0.210778,-0.596472 -0.546654,-1.101558 -1.668,-1.838114 -2.251739,-2.919277 -0.910229,-1.60773 -0.885043,-2.240918 0.413832,-3.602731 0,0 -3.367229,-2.07439 -3.367229,-2.07439 z" /><path
         style="fill:#ff0000;stroke-width:0.24"
         id="path1597-2"
         d="m 121.30865,65.590711 c 0.72369,1.596073 1.76806,3.015413 2.72636,4.474226 0.92056,1.392658 1.10748,2.949893 0.98585,4.573659 -0.12968,0.865373 -0.33098,1.710105 -0.30804,2.58899 0.0361,0.514736 0.17008,1.014467 0.2783,1.517007 0.008,0.04266 0.0168,0.08533 0.0252,0.127995 0,0 3.58168,1.739813 3.58168,1.739813 v 0 c -0.009,-0.0456 -0.0172,-0.0912 -0.0258,-0.136798 -0.10348,-0.49168 -0.2559,-0.972814 -0.32618,-1.47117 -0.0709,-0.869858 0.12162,-1.707314 0.24324,-2.56586 0.12598,-1.684007 0.0115,-3.335949 -0.89694,-4.814719 -0.94172,-1.428022 -1.98954,-2.805697 -2.6969,-4.3713 0,0 -3.58672,-1.661843 -3.58672,-1.661843 z" /><path
         style="fill:#ff0000;stroke-width:0.24"
         id="path1599-54"
         d="m 200.64753,94.594843 c 0.74267,1.46957 1.48499,2.941863 2.09899,4.470649 0.3418,0.86617 0.5425,1.760918 0.50278,2.691458 -0.0496,0.57696 -0.2259,1.13013 -0.37223,1.68722 -0.0473,0.18538 -0.0908,0.3717 -0.13072,0.55881 0,0 3.5174,1.87514 3.5174,1.87514 v 0 c 0.0294,-0.18315 0.0677,-0.36443 0.10644,-0.54581 0.13644,-0.58532 0.31969,-1.16105 0.38719,-1.76069 0.0778,-0.98924 -0.10593,-1.94194 -0.4688,-2.86674 -0.5994,-1.529808 -1.36836,-2.983487 -2.05099,-4.476832 0,0 -3.59006,-1.633205 -3.59006,-1.633205 z" /><path
         style="fill:#ff0000;stroke-width:0.24"
         id="path1601-0"
         d="m 225.94374,11.686059 c -0.73799,1.12476 -1.15401,2.487192 -0.86354,3.83715 0.0684,0.318022 0.2065,0.616958 0.30975,0.925437 0.694,1.525417 1.87899,2.707231 3.0576,3.862206 0.68617,0.631686 1.20568,1.346652 1.41607,2.259242 0.0988,0.703472 -0.16709,1.352744 -0.4865,1.963138 -0.21851,0.412506 -0.49092,0.789243 -0.78657,1.14869 0,0 3.41616,2.040376 3.41616,2.040376 v 0 c 0.29858,-0.388328 0.57556,-0.791937 0.802,-1.227571 0.35519,-0.684361 0.65488,-1.411266 0.6059,-2.198633 -0.15394,-0.993092 -0.60657,-1.803898 -1.34695,-2.492567 -1.17966,-1.128963 -2.39919,-2.251866 -3.16604,-3.719486 -0.11403,-0.279395 -0.26223,-0.547175 -0.34208,-0.838186 -0.33572,-1.223388 0.01,-2.514065 0.76595,-3.497379 0,0 -3.38175,-2.062418 -3.38175,-2.062417 z" /><path
         style="fill:#ff0000;stroke-width:0.24"
         id="path1603-59"
         d="m 148.38191,5.1162291 c -0.17642,1.3686628 0.38003,2.6982139 0.96004,3.9092074 0.4854,0.898807 1.03502,1.7600785 1.37946,2.7258235 0.19077,0.525656 0.10335,1.019824 -0.0988,1.521415 -0.10117,0.225152 -0.19952,0.451283 -0.27899,0.685079 -0.005,-0.02753 -0.0166,0.07869 -0.0301,0.06062 -0.0844,-0.112877 -0.23215,-0.07033 -0.39124,-0.0655 -0.17562,-0.0099 -0.34718,0.02996 -0.51825,0.06266 0,0 3.25294,2.289434 3.25294,2.289434 v 0 c 0.16642,-0.01809 0.33276,-0.0267 0.49982,-0.03728 0.28971,-0.03186 0.57258,-0.07979 0.68469,-0.387602 0.0703,-0.228369 0.14599,-0.45423 0.24752,-0.671365 0.22885,-0.573714 0.38292,-1.165867 0.20607,-1.779805 -0.31569,-1.00172 -0.85257,-1.890945 -1.38634,-2.790555 -0.58201,-1.1049665 -1.17985,-2.3488965 -1.05051,-3.6270105 0,0 -3.47638,-1.8951294 -3.47638,-1.8951294 z" /><path
         style="fill:#ff0000;stroke-width:0.24"
         id="path1605-4"
         d="m 80.441596,99.393902 c 1.119707,0.663058 2.240971,1.321698 3.311817,2.061948 0.924397,0.61485 1.569206,1.36 1.845779,2.43738 0.146018,0.90741 -0.267336,1.67128 -0.825366,2.34893 -0.257247,0.27828 -0.556166,0.51117 -0.856278,0.74035 0,0 3.360856,2.11256 3.360856,2.11256 v 0 c 0.31146,-0.25717 0.618726,-0.52102 0.882921,-0.82825 0.60364,-0.77469 1.071434,-1.64862 0.98065,-2.66306 -0.224811,-1.22994 -0.726859,-1.98286 -1.753409,-2.71381 -1.042187,-0.7553 -2.146798,-1.41098 -3.252728,-2.06796 0,0 -3.694242,-1.428087 -3.694242,-1.428088 z" /><path
         style="fill:#ff0000;stroke-width:0.24"
         id="path1607-6"
         d="m 16.639963,9.3568555 c -0.636387,1.1305795 -0.866699,1.9900685 -0.578293,3.2687045 0.663529,1.575468 2.175193,2.521592 3.556212,3.417691 0.860596,0.57119 1.907816,0.944557 2.248792,1.99368 0.017,0.954237 -0.596532,1.733986 -1.181103,2.431631 -0.172503,0.201823 -0.359546,0.389068 -0.555536,0.567631 0,0 3.383468,2.080473 3.383468,2.080473 v 0 c 0.194079,-0.199487 0.382458,-0.404159 0.557504,-0.62085 0.639775,-0.808533 1.261281,-1.685816 1.344876,-2.745635 -0.02225,-0.162088 -0.01973,-0.329558 -0.06675,-0.486264 -0.280754,-0.935636 -1.381154,-1.314099 -2.105387,-1.811021 -1.354157,-0.843603 -2.838979,-1.712921 -3.642579,-3.140292 -0.364785,-1.129379 -0.167745,-1.972664 0.462109,-2.969516 0,0 -3.423311,-1.9862325 -3.423311,-1.9862325 z" /><path
         style="fill:#ff0000;stroke-width:0.24"
         id="path1609-92"
         d="m -0.16096791,114.81158 c 1.38035381,0.99781 2.88004071,1.81097 4.32812861,2.70302 0.7118249,0.57431 1.7874503,0.96597 2.276885,1.79302 0.07087,0.11975 0.09978,0.25979 0.1496672,0.38969 0.04224,1.12752 -0.6344189,2.05879 -1.3452418,2.86811 -0.2824553,0.22893 -0.5385177,0.66245 -0.9218782,0.74521 -0.1104311,-0.0241 -0.1681162,-0.054 -0.2768253,-0.009 -0.1950563,0.13955 -0.3339445,0.33731 -0.4717587,0.52987 -0.4864526,0.62698 0.05233,1.22204 0.4525816,1.73761 0.5949558,0.70284 1.2491787,1.35203 1.9204965,1.9812 0,0 3.6686008,1.49787 3.6686008,1.49787 v 0 c -0.6975909,-0.60822 -1.3618948,-1.25515 -1.9823906,-1.94207 -0.1087471,-0.12674 -0.7088649,-0.76057 -0.783176,-0.93298 -0.03662,-0.085 0.1230822,-0.24771 0.1505592,-0.31447 0.06576,-0.0885 0.1869122,-0.31404 0.3127294,-0.25947 0.1212882,0.0369 0.2303393,-0.0285 0.3362704,-0.0889 0.3728615,-0.24583 0.6717829,-0.5855 0.9685193,-0.91494 0.763858,-0.9307 1.4470815,-1.95964 1.5223635,-3.1983 -0.0276,-0.17537 -0.02201,-0.35932 -0.08281,-0.52611 -0.311571,-0.85456 -1.6165637,-1.42588 -2.2721066,-1.95202 -1.4229978,-0.89168 -2.9082588,-1.68362 -4.2847025,-2.64838 0,0 -3.66591281,-1.45865 -3.66591281,-1.45865 z" /><path
         style="fill:#ffff00;stroke-width:0.24"
         id="path1611-2"
         d="m 24.949924,44.688723 c 0.990681,0.657492 2.005103,1.277749 2.966493,1.978242 0.648589,0.487637 1.058114,1.059312 0.988878,1.882671 -0.132431,0.61645 -0.518342,1.109078 -0.927303,1.569599 -0.239851,0.264004 -0.517218,0.488926 -0.735752,0.771519 -0.260457,0.395484 -0.405177,0.847794 -0.512833,1.304846 -0.113163,0.449503 -0.09689,0.871 0.07642,1.299033 0.187776,0.36341 0.459517,0.670885 0.7383,0.966287 0.188368,0.204695 0.409484,0.375261 0.624412,0.550595 0.136037,0.123513 0.296824,0.225637 0.402644,0.378553 0,0 3.705702,1.488779 3.705702,1.488779 v 0 c -0.176762,-0.0641 -0.257521,-0.282372 -0.41912,-0.374539 -0.205791,-0.181351 -0.420963,-0.351086 -0.637501,-0.519417 -0.282638,-0.269915 -0.559435,-0.547725 -0.79367,-0.861782 -0.23346,-0.33596 -0.29439,-0.64479 -0.198381,-1.049541 0.07895,-0.401243 0.191671,-0.801004 0.42886,-1.140577 0.22587,-0.267462 0.491478,-0.498573 0.716135,-0.767546 0.444838,-0.530746 0.857698,-1.0947 1.029974,-1.778174 0.147704,-0.925402 -0.106077,-1.651889 -0.836256,-2.269017 -0.938099,-0.720328 -1.948215,-1.333312 -2.934477,-1.984254 0,0 -3.682528,-1.445276 -3.682528,-1.445276 z" /><path
         style="fill:#ffff00;stroke-width:0.24"
         id="path1662-4"
         d="m 56.507701,8.2608192 c -0.332622,1.6773153 -0.04091,2.7481828 0.791005,4.2182418 0.759048,1.182387 1.766699,2.165081 2.723086,3.182771 0.405376,0.411346 0.593565,0.807331 0.407574,1.360371 -0.104944,0.253564 -0.250313,0.487162 -0.435077,0.689625 0,0 3.415317,2.052324 3.415317,2.052324 v 0 c 0.197631,-0.251861 0.365974,-0.525335 0.490533,-0.821084 0.240915,-0.646289 0.246839,-1.219656 -0.244133,-1.760564 -0.949996,-1.030645 -2.012792,-1.964873 -2.80943,-3.129795 -0.854465,-1.359097 -1.223647,-2.317527 -0.850612,-3.923629 0,0 -3.488263,-1.8682608 -3.488263,-1.8682608 z" /><path
         style="fill:#ffff00;stroke-width:0.24"
         id="path1664-77"
         d="m 125.70451,27.588443 c 0.41434,1.944039 1.31697,3.700449 2.5508,5.243139 0.5726,0.767903 1.48368,1.182209 2.0679,1.928109 0.37916,0.761833 -0.35112,1.340448 -0.88777,1.784173 -0.39688,0.305077 -0.83258,0.550783 -1.30226,0.7221 0,0 3.31318,2.211192 3.31318,2.211192 v 0 c 0.47761,-0.227221 0.92471,-0.513546 1.33519,-0.847426 0.66868,-0.593087 1.40086,-1.303472 1.15938,-2.276898 -0.46317,-0.896379 -1.4375,-1.264642 -2.10144,-2.000343 -1.27587,-1.443138 -2.23153,-3.119538 -2.60713,-5.028726 0,0 -3.52785,-1.73532 -3.52785,-1.73532 z" /><path
         style="fill:#ffff00;stroke-width:0.24"
         id="path1666-5"
         d="m 186.46676,6.7459992 c 0.3722,1.3202803 0.90381,2.5565253 1.78725,3.6101208 0.88301,0.897782 1.71766,1.235264 2.15013,2.480713 0.15392,0.952408 -0.25659,1.792116 -0.83175,2.519501 -0.24327,0.266204 -0.1236,0.145218 -0.35598,0.365939 0,0 3.38451,2.071786 3.38451,2.071786 v 0 c 0.23978,-0.25597 0.11605,-0.117349 0.36864,-0.418131 0.61584,-0.835909 1.05748,-1.789384 0.98124,-2.852777 -0.32446,-1.442018 -1.02977,-1.746952 -2.09145,-2.652395 -0.93418,-0.95557 -1.49344,-2.1242235 -1.82719,-3.4170498 0,0 -3.5654,-1.707707 -3.5654,-1.707707 z" /><path
         style="fill:#ffff00;stroke-width:0.24"
         id="path1668-4"
         d="m 241.16236,75.455361 c -1.42619,1.887797 -1.16076,3.992687 -0.56266,6.133931 0.76109,2.012916 2.33586,3.527216 3.75774,5.085786 0.68576,0.751832 1.17136,1.31445 0.80892,2.339496 -0.17895,0.385395 -0.46299,0.696087 -0.79517,0.95409 0,0 3.37209,2.104531 3.37209,2.104531 v 0 c 0.35777,-0.327528 0.67427,-0.697349 0.87815,-1.142458 0.4382,-1.162468 0.17592,-1.859137 -0.67635,-2.751865 -1.42065,-1.534631 -3.01729,-2.995972 -3.86959,-4.943779 -0.63006,-1.977864 -1.00273,-4.009358 0.4547,-5.727195 0,0 -3.36783,-2.052537 -3.36783,-2.052537 z" /><path
         style="fill:#ffff00;stroke-width:0.24"
         id="path1670-8"
         d="m 174.2338,52.932946 c -0.33108,1.454569 -0.0926,2.901775 0.28673,4.317111 0.54889,1.502992 0.86109,2.402967 0.58952,4.019148 -0.17557,0.784664 -0.53794,1.493171 -1.00612,2.139313 0,0 3.41029,2.006811 3.41029,2.006811 v 0 c 0.47277,-0.70993 0.84727,-1.477335 1.04096,-2.313346 0.3085,-1.637197 0.12667,-2.650707 -0.50904,-4.176475 -0.39991,-1.337183 -0.69867,-2.721041 -0.33945,-4.106362 0,0 -3.47289,-1.886199 -3.47289,-1.8862 z" /><path
         style="fill:#ffff00;stroke-width:0.24"
         id="path1672-1"
         d="m 137.41927,100.28606 c 2.55469,1.92975 5.44928,3.36574 8.25205,4.90486 -6.3881,-3.38659 -2.54147,-1.93301 -2.12781,-0.91934 0.20837,0.5106 -0.0217,1.01766 -0.20567,1.48633 -0.39802,0.7822 -0.99985,1.40309 -1.70558,1.90956 -0.0643,0.0409 -0.12854,0.0818 -0.19282,0.12268 0,0 3.3445,2.13594 3.3445,2.13594 v 0 c 0.0654,-0.0477 0.13072,-0.0955 0.19608,-0.14319 0.73057,-0.58076 1.35027,-1.27658 1.78024,-2.11217 0.3526,-0.85032 0.75604,-2.05859 -0.23693,-2.66621 -1.27787,-0.78195 -2.59068,-1.50531 -3.88602,-2.25797 -1.11678,-0.60281 -3.84359,-2.22511 0.92877,0.61437 0.31462,0.18719 -0.63805,-0.35927 -0.95294,-0.546 -0.29949,-0.17759 -0.59697,-0.35876 -0.89,-0.54684 -0.22576,-0.1449 -0.44397,-0.30124 -0.66596,-0.45185 0,0 -3.63791,-1.53017 -3.63791,-1.53017 z" /><path
         style="fill:#ffff00;stroke-width:0.24"
         id="path1674-2"
         d="m 85.466799,48.299335 c 0.04729,1.560571 0.381509,2.399432 1.366162,3.611595 1.342942,1.341594 3.024906,2.258419 4.645774,3.216343 1.379349,0.858286 1.503413,1.335355 0.887522,2.80265 -0.314727,0.635157 -0.725176,1.215697 -1.223778,1.718353 0,0 3.386941,2.059292 3.386941,2.059292 v 0 c 0.496277,-0.563452 0.920266,-1.186093 1.249065,-1.862646 0.644762,-1.500897 0.854198,-2.323502 -0.661488,-3.317557 -1.619676,-0.949431 -3.30034,-1.840836 -4.704547,-3.103327 -0.957258,-1.036955 -1.416496,-1.885334 -1.418094,-3.32159 0,0 -3.527557,-1.803112 -3.527557,-1.803113 z" /><path
         style="fill:#0000ff;stroke-width:0.24"
         id="path1676-8"
         d="m 236.19892,42.114433 c 0.14448,1.556268 0.55357,3.066997 1.09108,4.529169 0.32042,0.902488 0.8755,1.735447 0.96248,2.703219 -0.10059,0.800094 -0.62981,1.406951 -1.18504,1.949556 -0.17858,0.169722 -0.36846,0.326112 -0.5628,0.477139 0,0 3.36799,2.10857 3.36799,2.10857 v 0 c 0.19345,-0.16865 0.38461,-0.339939 0.56559,-0.522137 0.61408,-0.638309 1.16533,-1.341707 1.33711,-2.234372 0.008,-1.035767 -0.54961,-1.90614 -0.94519,-2.838099 -0.55814,-1.405049 -0.99803,-2.863879 -1.10985,-4.379895 0,0 -3.52137,-1.793149 -3.52137,-1.79315 z" /><path
         style="fill:#0000ff;stroke-width:0.24"
         id="path1727-9"
         d="m 152.25329,62.805736 c 0.27295,1.677061 1.23482,3.098254 2.2137,4.444269 0.73656,1.032153 1.72327,1.870438 2.39365,2.948787 0.43797,0.98925 -0.20152,1.87293 -0.77143,2.652929 -0.34456,0.445889 -0.73658,0.850882 -1.14802,1.234628 0,0 3.38294,2.078971 3.38294,2.078971 v 0 c 0.40812,-0.415364 0.79976,-0.847492 1.14639,-1.316336 0.63582,-0.899358 1.31972,-1.892205 0.98508,-3.040716 -0.5723,-1.171683 -1.66301,-1.976094 -2.42385,-3.020608 -0.9671,-1.268605 -1.9601,-2.613765 -2.23696,-4.221993 0,0 -3.5415,-1.759931 -3.5415,-1.759931 z" /><path
         style="fill:#0000ff;stroke-width:0.24"
         id="path1729-3"
         d="m 211.41521,70.075308 c 0.1169,0.997704 -0.0181,1.991876 -0.25732,2.960076 -0.21684,0.658493 -0.33861,1.018046 -0.0791,1.693122 0.41306,0.790514 0.98752,1.480367 1.53315,2.181135 0.34112,0.414745 0.58154,0.862584 0.6102,1.402244 -0.003,0.33034 -0.12771,0.637146 -0.2428,0.941205 0,0 3.4871,1.930662 3.4871,1.930662 v 0 c 0.11874,-0.350721 0.25802,-0.699873 0.29045,-1.072023 0.0239,-0.614823 -0.12735,-1.154038 -0.51343,-1.645941 -0.53972,-0.686358 -1.11018,-1.35354 -1.57029,-2.097807 -0.38423,-0.685708 -0.23316,-0.713735 -0.0418,-1.458704 0.23385,-1.008356 0.37661,-2.034889 0.32739,-3.073159 0,0 -3.5436,-1.76081 -3.5436,-1.76081 z" /><path
         style="fill:#0000ff;stroke-width:0.24"
         id="path1731-6"
         d="m 174.07047,24.66008 c 1.5534,1.003909 3.14568,1.949325 4.63538,3.047598 0.61271,0.513075 1.38431,1.074531 1.39748,1.944918 -0.13784,0.554167 -0.57091,0.935836 -0.99544,1.284115 -0.24099,0.156838 -0.44054,0.39763 -0.70824,0.51207 -0.17263,0.02572 -0.30662,0.12061 -0.43058,0.238791 -0.20538,0.293071 -0.24198,0.650021 -0.26401,0.997268 -0.0378,0.385219 0.0674,0.709586 0.27662,1.028469 0.21519,0.285399 0.4703,0.53837 0.73307,0.7797 0.0236,0.02085 0.0472,0.0417 0.0708,0.06255 0,0 3.7104,1.460546 3.7104,1.460546 v 0 c -0.0272,-0.01455 -0.0545,-0.0291 -0.0817,-0.04365 -0.29255,-0.192071 -0.53629,-0.44468 -0.78317,-0.69066 -0.21421,-0.237863 -0.40672,-0.435462 -0.38871,-0.777245 0.003,-0.233112 -0.003,-0.485734 0.10464,-0.696656 0.13035,-0.07252 0.28059,-0.09853 0.4009,-0.190913 0.25045,-0.182076 0.48531,-0.384733 0.72458,-0.580964 0.49449,-0.435002 0.9515,-0.918972 1.14763,-1.564926 0.12304,-1.074719 -0.5198,-1.664181 -1.29269,-2.322634 -1.4613,-1.120127 -3.05446,-2.046124 -4.59215,-3.055453 0,0 -3.66481,-1.432918 -3.66481,-1.432918 z" /><path
         style="fill:#0000ff;stroke-width:0.24"
         id="path1733-80"
         d="m 101.10921,24.754445 c -0.0771,1.682739 0.42876,2.685835 1.44933,3.978522 0.85636,1.000781 1.86618,1.858855 2.68667,2.890393 0.5409,0.753864 0.44181,1.482349 0.0798,2.279867 -0.47566,0.883676 -1.12189,1.656445 -1.78576,2.402826 -0.50272,0.560121 -1.04665,1.080448 -1.59832,1.591609 -0.23393,0.216067 -0.12183,0.113059 -0.33617,0.309166 0,0 3.38044,2.085896 3.38044,2.085896 v 0 c 0.20825,-0.2012 0.099,-0.09576 0.32792,-0.316275 0.54648,-0.530426 1.09332,-1.061644 1.59434,-1.636057 0.67951,-0.782238 1.34699,-1.584896 1.84295,-2.499923 0.42183,-0.89067 0.61774,-1.746372 0.11247,-2.65852 -0.77668,-1.091531 -1.83734,-1.93326 -2.72807,-2.926935 -0.97784,-1.138838 -1.63614,-2.11373 -1.51735,-3.679118 0,0 -3.50822,-1.821452 -3.50822,-1.821451 z" /><path
         style="fill:#0000ff;stroke-width:0.24"
         id="path1735-2"
         d="m 98.3779,77.705866 c 0.325214,1.195939 0.562053,2.497799 1.332754,3.507215 0.180956,0.237011 0.402136,0.440417 0.603196,0.660625 1.87229,1.633614 4.12647,2.813007 6.30842,3.961365 1.31602,0.787317 -0.0473,-0.02995 -2.99896,-1.723803 -0.0875,-0.05023 0.23938,0.09297 0.25359,0.311129 -0.0528,0.216511 -0.2021,0.394229 -0.33971,0.564396 -0.17779,0.251074 -0.36729,0.490321 -0.57421,0.718238 -0.38784,0.387451 -0.80039,0.750311 -1.21837,1.104876 0,0 3.37123,2.097802 3.37123,2.097802 v 0 c 0.41872,-0.37474 0.83877,-0.748887 1.23751,-1.144989 0.21642,-0.23345 0.42255,-0.474462 0.60671,-0.734452 0.17602,-0.230262 0.34813,-0.469519 0.43833,-0.748168 0.41513,-1.717548 -2.74101,-2.237414 -3.85849,-2.923399 -1.32628,-0.713277 -0.12221,-0.0697 2.69983,1.577826 0.15766,0.09204 -0.32066,-0.174783 -0.47796,-0.267446 -0.65389,-0.385196 -1.28427,-0.810934 -1.86277,-1.303678 -0.49201,-0.468458 -0.74753,-0.641914 -1.08868,-1.228733 -0.47592,-0.818642 -0.64873,-1.795738 -0.88245,-2.698817 0,0 -3.54997,-1.729988 -3.54997,-1.729987 z" /><path
         style="fill:#0000ff;stroke-width:0.24"
         id="path1737-1"
         d="m 56.843966,41.900933 c -0.445307,1.161192 -0.458643,2.3897 -0.0843,3.563975 0.442852,1.023646 1.31964,1.670082 2.214679,2.274082 0.495394,0.343899 1.056599,0.605598 1.481343,1.041016 0.265369,0.303843 0.09581,0.560959 -0.113703,0.838457 -0.193575,0.244549 -0.411761,0.467693 -0.633499,0.686419 0,0 3.394082,2.076717 3.394082,2.076717 v 0 c 0.227833,-0.237167 0.45324,-0.477268 0.654013,-0.738261 0.280298,-0.380569 0.536715,-0.809628 0.345684,-1.290537 -0.330481,-0.567187 -0.919743,-0.845013 -1.46141,-1.183182 -0.880199,-0.556321 -1.787728,-1.125996 -2.325283,-2.049013 -0.45136,-1.052592 -0.477101,-2.211112 -0.02149,-3.276148 0,0 -3.450119,-1.943525 -3.450119,-1.943525 z" /><path
         style="fill:#0000ff;stroke-width:0.24"
         id="path1739-0"
         d="m 59.756116,102.13132 c -0.807844,1.22814 -0.913295,1.74842 0.07151,2.92116 0.947936,0.86619 2.077883,1.49004 3.065203,2.30723 0.673611,0.62541 0.842493,1.03766 0.401034,1.85589 -0.332339,0.51484 -0.806958,0.89745 -1.288079,1.26413 0,0 3.360142,2.11395 3.360142,2.11395 v 0 c 0.507683,-0.41354 0.997084,-0.85336 1.35029,-1.41242 0.467347,-0.84259 0.553974,-1.61679 -0.184406,-2.34299 -0.947417,-0.87077 -2.077679,-1.48946 -3.090506,-2.27753 -1.039326,-0.96453 -1.10986,-1.25881 -0.271709,-2.42777 0,0 -3.413477,-2.00165 -3.413477,-2.00165 z" /><path
         style="fill:#800080;stroke-width:0.24"
         id="path1741-5"
         d="m 163.4898,105.5356 c -0.56667,1.42515 -0.0649,2.75669 0.66515,4.00456 0.60418,0.93779 1.42907,1.6986 2.10008,2.58389 0.39762,0.58243 0.49478,0.89922 0.10738,1.50413 -0.37301,0.47748 -0.89707,0.78606 -1.42897,1.05626 -0.21879,0.0921 -0.11351,0.0533 -0.31478,0.11945 0,0 3.30526,2.21491 3.30526,2.21491 v 0 c 0.21315,-0.0989 0.10226,-0.0445 0.33187,-0.16486 0.56953,-0.33026 1.12709,-0.69502 1.52381,-1.23276 0.41603,-0.65496 0.54042,-1.24055 0.0952,-1.92623 -0.62431,-0.93463 -1.49652,-1.66482 -2.14958,-2.57936 -0.72507,-1.09486 -1.35502,-2.31003 -0.79509,-3.62374 0,0 -3.4403,-1.95625 -3.4403,-1.95625 z" /><path
         style="fill:#800080;stroke-width:0.24"
         id="path1792-1"
         d="m 119.86274,93.316406 c -1.18897,0.84327 -2.02571,1.418494 -2.6446,2.779128 -0.46637,1.604057 0.56651,2.866729 1.54751,4.019766 0.68732,0.73207 1.44032,1.39269 1.6975,2.3917 0.0837,0.53312 -0.0476,1.02596 -0.33316,1.47324 -0.0278,0.0355 -0.0555,0.0709 -0.0832,0.1064 0,0 3.42466,2.02729 3.42466,2.02729 v 0 c 0.0317,-0.0457 0.0634,-0.0913 0.0952,-0.13699 0.31889,-0.53611 0.49765,-1.11947 0.44665,-1.75097 -0.20124,-1.24433 -0.78808,-1.7297 -1.65286,-2.59507 -0.9186,-1.00629 -2.05617,-2.138218 -1.73039,-3.612838 0.54124,-1.245021 1.43064,-1.854388 2.55607,-2.55478 0,0 -3.32331,-2.146876 -3.32331,-2.146876 z" /><path
         style="fill:#800080;stroke-width:0.24"
         id="path1794-1"
         d="m 110.09659,-5 c -0.60741,1.1477988 -0.93208,2.3481071 -0.9441,3.6425529 0.034,1.05263774 0.41423,2.0384617 0.72235,3.0316616 0.18915,0.5857942 0.28969,1.1698111 0.13847,1.770892 -0.0722,0.245572 -0.21401,0.4579017 -0.35843,0.6656752 0,0 3.43693,2.015362 3.43693,2.015362 v 0 c 0.16149,-0.2486171 0.31886,-0.5031873 0.40901,-0.7879014 0.18721,-0.6687032 0.15433,-1.3163619 -0.0655,-1.9796733 -0.28702,-0.9736611 -0.70574,-1.9182337 -0.78969,-2.9410875 -0.0407,-1.23510117 0.2497,-2.3797485 0.87967,-3.4519443 0,0 -3.4287,-1.9655372 -3.4287,-1.9655372 z" /><path
         style="fill:#800080;stroke-width:0.24"
         id="path1796-0"
         d="m 210.66463,-4.8188813 c -0.90441,0.5161005 -1.79763,1.0413367 -2.46716,1.850906 -0.63134,0.934904 -0.40835,1.9613378 -0.10954,2.9700041 0.28264,0.7981176 0.65334,1.5573063 0.86257,2.3798022 0.092,0.4097862 0.16743,0.8367369 0.0271,1.2426402 0,0 3.48217,1.9291062 3.48217,1.9291062 v 0 c 0.17725,-0.4757989 0.16782,-0.9677339 0.0521,-1.4608013 -0.1883,-0.8442704 -0.52234,-1.6252325 -0.86991,-2.4156252 -0.29496,-0.8647926 -0.61044,-1.7830496 -0.067,-2.61705969 0.64659,-0.76765491 1.52307,-1.25662741 2.40503,-1.71460641 0,0 -3.3154,-2.1643661 -3.3154,-2.1643661 z" /><path
         style="fill:#800080;stroke-width:0.24"
         id="path1798-8"
         d="m 206.63636,38.378775 c -0.82292,0.830845 -1.14439,1.628082 -1.01353,2.788984 0.33137,1.134417 1.06131,2.087904 1.68249,3.07631 0.57262,0.857962 0.4688,1.384435 -0.0195,2.245149 -0.34066,0.532156 -0.77558,0.991541 -1.23278,1.423746 -0.041,0.03865 -0.082,0.0773 -0.12302,0.115951 0,0 3.38862,2.082398 3.38862,2.082398 v 0 c 0.0395,-0.03987 0.079,-0.07974 0.11852,-0.11961 0.46623,-0.472125 0.90695,-0.972148 1.26055,-1.536078 0.4898,-0.863349 0.80783,-1.723597 0.20697,-2.624265 -0.6014,-0.965647 -1.31125,-1.8762 -1.74872,-2.933522 -0.22526,-1.043303 0.0604,-1.718144 0.84717,-2.434506 0,0 -3.36679,-2.084557 -3.36679,-2.084557 z" /><path
         style="fill:#800080;stroke-width:0.24"
         id="path1800-5"
         d="m 234.83243,100.34577 c 1.22816,1.26765 2.52054,2.47214 3.72463,3.76301 0.99648,1.06188 0.69293,1.72059 -0.0718,2.81683 -1.00483,1.21658 -2.25052,2.19551 -3.54311,3.08653 -0.31673,0.21504 -0.64715,0.40717 -0.98372,0.58879 0,0 3.32231,2.15698 3.32231,2.15698 v 0 c 0.32969,-0.20396 0.65549,-0.41403 0.9695,-0.64177 1.29686,-0.95162 2.54793,-1.98047 3.59327,-3.21037 0.80546,-1.12588 1.36754,-2.09686 0.32393,-3.28575 -1.19369,-1.29218 -2.5022,-2.47151 -3.70865,-3.75187 0,0 -3.62637,-1.52238 -3.62637,-1.52238 z" /><path
         style="fill:#800080;stroke-width:0.24"
         id="path1802-0"
         d="m 248.09167,1.3985025 c -0.5232,1.6176999 -0.34303,3.2779939 0.0533,4.8962972 0.34384,1.2393874 0.97779,2.359534 1.54631,3.5030138 0.3111,0.5594795 0.32934,1.0912375 0.0973,1.6750755 -0.16487,0.366915 -0.43402,0.667142 -0.66479,0.991633 0,0 3.43269,2.019318 3.43269,2.019318 v 0 c 0.23748,-0.354096 0.51434,-0.683926 0.68857,-1.077325 0.27456,-0.656283 0.37674,-1.322506 0.038,-1.98217 -0.56497,-1.143059 -1.25616,-2.2298975 -1.63716,-3.4568432 -0.42219,-1.5214793 -0.66104,-3.1109583 -0.0982,-4.6348983 0,0 -3.45605,-1.934101 -3.45605,-1.934101 z" /><path
         style="fill:#800080;stroke-width:0.24"
         id="path1806-6"
         d="m 11.339058,51.037635 c 0.498606,1.271454 1.134374,2.479437 1.844889,3.643519 0.464366,0.744905 1.028659,1.418923 1.535244,2.133994 0.363308,0.506312 0.500029,1.044469 0.391272,1.654011 -0.11171,0.433647 -0.346346,0.808694 -0.602756,1.168826 0,0 3.429666,2.016413 3.429666,2.016413 v 0 c 0.273492,-0.411046 0.524816,-0.835963 0.661872,-1.315081 0.163179,-0.684022 0.118586,-1.330756 -0.256666,-1.943379 -0.486202,-0.739862 -1.079463,-1.400421 -1.573952,-2.134974 -0.727793,-1.123708 -1.381264,-2.298032 -1.851352,-3.555208 0,0 -3.578217,-1.668121 -3.578217,-1.668121 z" /><path
         style="fill:#ff0000;stroke-width:0.24"
         id="path1808-4"
         d="m 23.226722,102.08464 c 1.00581,0.60028 1.937931,1.29964 2.727355,2.16603 0.6007,0.71862 0.740323,1.50015 0.548029,2.39277 -0.141602,0.52002 -0.444113,0.95467 -0.764176,1.37716 -0.137534,0.21728 -0.331544,0.34723 -0.551938,0.46829 -0.240858,0.1184 -0.445904,0.18646 -0.595281,0.41844 -0.07733,0.17335 -0.147672,0.3849 -0.0045,0.53858 1.188908,1.05168 2.624866,2.07851 4.225401,2.15459 0.364565,0.0102 0.729372,0.005 1.094011,0.001 0.154403,-0.001 0.30881,-0.002 0.463217,-0.002 0,0 -3.222229,-2.338 -3.222229,-2.338 v 0 c -0.153315,0.002 -0.306629,0.003 -0.45995,0.004 -0.35597,10e-4 -0.713108,0.007 -1.067524,-0.0325 -0.123578,-0.0184 -0.475784,-0.13161 -0.368793,-0.0671 5.597133,3.37611 4.198601,2.3763 3.036581,1.77357 -0.09326,-0.0581 -0.161124,-0.0163 -0.253647,-0.0177 0.15962,-0.0897 0.337419,-0.16816 0.493265,-0.27162 0.25209,-0.16189 0.473927,-0.34622 0.632982,-0.60472 0.337505,-0.47553 0.650599,-0.9667 0.817601,-1.5325 0.235533,-0.979 0.195287,-1.88199 -0.406856,-2.73342 -0.744048,-0.91283 -1.65212,-1.64222 -2.651764,-2.2631 0,0 -3.691817,-1.4325 -3.691817,-1.4325 z" /><path
         style="fill:#ffff00;stroke-width:0.24"
         id="path5299"
         d="m 13.819737,80.77429 c -0.0318,2.050066 1.540544,3.700558 2.749991,5.20926 0.600719,0.926057 1.724128,1.677903 2.030298,2.789317 0.04146,0.150516 0.0402,0.309644 0.0603,0.464468 -0.04605,0.929391 -0.471218,1.750446 -0.986383,2.502868 -0.345248,0.474543 -0.7563,0.894286 -1.179472,1.298681 -0.04088,0.03644 -0.08176,0.07289 -0.122648,0.109334 0,0 3.384333,2.089435 3.384333,2.089435 v 0 c 0.0411,-0.04026 0.08221,-0.08052 0.123313,-0.120787 0.428037,-0.433798 0.845294,-0.880933 1.196876,-1.380398 0.553166,-0.831066 0.992955,-1.731399 1.09825,-2.738363 -0.0032,-0.188476 0.0203,-0.379291 -0.0095,-0.565428 -0.191279,-1.196088 -1.410285,-2.013008 -2.056074,-2.940687 -0.943689,-1.140151 -2.555723,-2.873434 -2.788553,-4.369107 -0.02551,-0.163904 -0.0025,-0.331745 -0.0038,-0.497618 0,0 -3.496978,-1.850975 -3.496978,-1.850975 z" /><path
         style="fill:#ff0000;stroke-width:0.24"
         id="path1595-6"
         d="m -162.83153,14.18627 c -1.28611,1.5887 -1.49145,2.186013 -0.59111,4.079731 0.70037,1.246849 1.83779,2.17529 2.44877,3.470641 0.29307,0.966287 0.12877,1.938605 -0.21451,2.863733 -0.0864,0.223118 -0.20993,0.427091 -0.33389,0.630381 0,0 3.43984,1.988777 3.43984,1.988777 v 0 c 0.12868,-0.228425 0.25768,-0.457268 0.34927,-0.704003 0.36095,-1.01115 0.54569,-2.069271 0.31754,-3.13639 -0.0703,-0.198824 -0.11704,-0.407579 -0.21078,-0.596472 -0.54665,-1.101558 -1.668,-1.838114 -2.25174,-2.919277 -0.91023,-1.60773 -0.88504,-2.240918 0.41384,-3.602731 0,0 -3.36723,-2.07439 -3.36723,-2.07439 z" /><path
         style="fill:#ff0000;stroke-width:0.24"
         id="path1597-7"
         d="m -118.12034,64.810529 c 0.72369,1.596072 1.76806,3.015412 2.72636,4.474225 0.92057,1.392659 1.10749,2.949893 0.98585,4.573659 -0.12967,0.865373 -0.33098,1.710105 -0.30804,2.58899 0.0361,0.514737 0.17008,1.014468 0.27831,1.517007 0.008,0.04266 0.0168,0.08533 0.0252,0.127995 0,0 3.58167,1.739813 3.58167,1.739813 v 0 c -0.009,-0.0456 -0.0173,-0.0912 -0.0259,-0.136798 -0.10348,-0.49168 -0.2559,-0.972814 -0.32618,-1.47117 -0.0709,-0.869858 0.12162,-1.707314 0.24324,-2.56586 0.12599,-1.684007 0.0115,-3.335949 -0.89694,-4.814719 -0.94172,-1.428022 -1.98953,-2.805697 -2.6969,-4.3713 0,0 -3.58672,-1.661842 -3.58672,-1.661842 z" /><path
         style="fill:#ff0000;stroke-width:0.24"
         id="path1599-5"
         d="m -38.781456,93.814661 c 0.742671,1.46957 1.484992,2.941862 2.098993,4.470648 0.34179,0.86617 0.542491,1.760921 0.502771,2.691461 -0.0496,0.57696 -0.225901,1.13013 -0.372231,1.68722 -0.0473,0.18538 -0.0908,0.3717 -0.13071,0.55881 0,0 3.517394,1.87514 3.517394,1.87514 v 0 c 0.0294,-0.18315 0.0677,-0.36443 0.106441,-0.54581 0.13644,-0.58532 0.31969,-1.16105 0.38719,-1.76069 0.0778,-0.98924 -0.10593,-1.94194 -0.468801,-2.86674 -0.5994,-1.52981 -1.368361,-2.98349 -2.050992,-4.476835 0,0 -3.590055,-1.633204 -3.590055,-1.633204 z" /><path
         style="fill:#ff0000;stroke-width:0.24"
         id="path1601-3"
         d="m -13.485253,10.905876 c -0.737981,1.124761 -1.154001,2.487192 -0.863531,3.83715 0.0684,0.318022 0.2065,0.616958 0.30975,0.925437 0.693991,1.525417 1.878983,2.707231 3.057594,3.862206 0.686171,0.631686 1.2056818,1.346652 1.4160721,2.259242 0.0988,0.703472 -0.1670902,1.352744 -0.4865011,1.963138 -0.21851,0.412506 -0.49092,0.789242 -0.786571,1.148689 0,0 3.4161649,2.040377 3.4161649,2.040377 v 0 c 0.2985804,-0.388329 0.5755608,-0.791937 0.802001,-1.227571 0.3551905,-0.684361 0.6548809,-1.411266 0.6059008,-2.198633 -0.1539402,-0.993092 -0.6065708,-1.803898 -1.3469517,-2.492567 -1.1796615,-1.128963 -2.3991931,-2.251866 -3.166044,-3.719486 -0.11403,-0.279395 -0.26223,-0.547175 -0.342081,-0.838186 -0.33572,-1.223388 0.01,-2.514065 0.765951,-3.497379 0,0 -3.381754,-2.062418 -3.381754,-2.062417 z" /><path
         style="fill:#ff0000;stroke-width:0.24"
         id="path1603-5"
         d="m -91.047074,4.3360461 c -0.17642,1.3686628 0.380031,2.6982139 0.960031,3.9092074 0.485401,0.898807 1.035022,1.7600795 1.379462,2.7258245 0.19077,0.525656 0.10335,1.019823 -0.0988,1.521414 -0.10117,0.225152 -0.19952,0.451283 -0.27899,0.685079 -0.005,-0.02753 -0.0166,0.07869 -0.0301,0.06062 -0.0844,-0.112876 -0.232151,-0.07033 -0.391241,-0.0655 -0.17562,-0.0099 -0.34718,0.02996 -0.51825,0.06266 0,0 3.252944,2.289434 3.252944,2.289434 v 0 c 0.16642,-0.01809 0.33276,-0.0267 0.49982,-0.03728 0.289711,-0.03186 0.572581,-0.07979 0.684691,-0.387602 0.0703,-0.228369 0.14599,-0.45423 0.247521,-0.671365 0.22885,-0.573714 0.38292,-1.165867 0.20607,-1.779805 -0.315691,-1.00172 -0.852571,-1.890945 -1.386342,-2.7905545 -0.582011,-1.104967 -1.179851,-2.348897 -1.050511,-3.627011 0,0 -3.476375,-1.8951294 -3.476375,-1.8951294 z" /><path
         style="fill:#ff0000;stroke-width:0.24"
         id="path1605-6"
         d="m -158.98739,98.61372 c 1.11971,0.66306 2.24097,1.3217 3.31182,2.06195 0.92439,0.61485 1.5692,1.36 1.84577,2.43738 0.14602,0.90741 -0.26733,1.67128 -0.82536,2.34893 -0.25725,0.27828 -0.55617,0.51117 -0.85628,0.74035 0,0 3.36086,2.11256 3.36086,2.11256 v 0 c 0.31146,-0.25717 0.61872,-0.52102 0.88292,-0.82825 0.60364,-0.77469 1.07143,-1.64862 0.98065,-2.66306 -0.22481,-1.22994 -0.72686,-1.98286 -1.75341,-2.71381 -1.04219,-0.7553 -2.1468,-1.41098 -3.25273,-2.06796 0,0 -3.69424,-1.42809 -3.69424,-1.42809 z" /><path
         style="fill:#ff0000;stroke-width:0.24"
         id="path1607-2"
         d="m -222.78903,8.5766725 c -0.63638,1.130579 -0.86669,1.9900685 -0.57829,3.2687045 0.66353,1.575468 2.1752,2.521593 3.55621,3.417691 0.8606,0.57119 1.90782,0.944557 2.2488,1.99368 0.017,0.954237 -0.59654,1.733986 -1.18111,2.431631 -0.1725,0.201823 -0.35954,0.389068 -0.55553,0.56763 0,0 3.38346,2.080474 3.38346,2.080474 v 0 c 0.19408,-0.199488 0.38246,-0.404159 0.55751,-0.62085 0.63977,-0.808534 1.26128,-1.685816 1.34488,-2.745635 -0.0222,-0.162089 -0.0197,-0.329558 -0.0667,-0.486264 -0.28076,-0.935636 -1.38116,-1.314099 -2.10539,-1.811021 -1.35416,-0.843603 -2.83898,-1.712921 -3.64258,-3.140292 -0.36479,-1.129379 -0.16775,-1.972664 0.46211,-2.969516 0,0 -3.42331,-1.9862325 -3.42331,-1.9862325 z" /><path
         style="fill:#ff0000;stroke-width:0.24"
         id="path1609-9"
         d="m -239.58996,114.0314 c 1.38036,0.99781 2.88004,1.81097 4.32813,2.70302 0.71183,0.57431 1.78745,0.96597 2.27689,1.79302 0.0709,0.11975 0.0998,0.25979 0.14966,0.38969 0.0422,1.12752 -0.63441,2.05879 -1.34524,2.86811 -0.28245,0.22893 -0.53851,0.66245 -0.92188,0.74521 -0.11043,-0.0241 -0.16811,-0.054 -0.27682,-0.009 -0.19506,0.13955 -0.33394,0.33731 -0.47176,0.52987 -0.48645,0.62698 0.0523,1.22204 0.45258,1.73761 0.59496,0.70284 1.24918,1.35203 1.9205,1.9812 0,0 3.6686,1.49787 3.6686,1.49787 v 0 c -0.69759,-0.60822 -1.36189,-1.25515 -1.98239,-1.94207 -0.10875,-0.12674 -0.70887,-0.76057 -0.78318,-0.93298 -0.0366,-0.085 0.12309,-0.24771 0.15056,-0.31447 0.0658,-0.0885 0.18691,-0.31404 0.31273,-0.25947 0.12129,0.0369 0.23034,-0.0285 0.33627,-0.0889 0.37286,-0.24583 0.67179,-0.5855 0.96852,-0.91494 0.76386,-0.9307 1.44708,-1.95964 1.52237,-3.1983 -0.0276,-0.17537 -0.022,-0.35932 -0.0828,-0.52611 -0.31158,-0.85456 -1.61657,-1.42588 -2.27211,-1.95202 -1.423,-0.89168 -2.90826,-1.68362 -4.2847,-2.64838 0,0 -3.66592,-1.45865 -3.66592,-1.45865 z" /><path
         style="fill:#ffff00;stroke-width:0.24"
         id="path1611-1"
         d="m -214.47906,43.90854 c 0.99068,0.657492 2.0051,1.277749 2.96649,1.978242 0.64859,0.487637 1.05811,1.059312 0.98888,1.882671 -0.13243,0.61645 -0.51834,1.109078 -0.92731,1.569599 -0.23985,0.264004 -0.51721,0.488926 -0.73575,0.771519 -0.26045,0.395484 -0.40517,0.847794 -0.51283,1.304846 -0.11316,0.449503 -0.0969,0.871 0.0764,1.299033 0.18778,0.36341 0.45952,0.670885 0.7383,0.966287 0.18837,0.204695 0.40948,0.375261 0.62441,0.550595 0.13604,0.123513 0.29683,0.225637 0.40265,0.378553 0,0 3.7057,1.488779 3.7057,1.488779 v 0 c -0.17676,-0.0641 -0.25752,-0.282372 -0.41912,-0.374539 -0.20579,-0.181351 -0.42097,-0.351086 -0.6375,-0.519417 -0.28264,-0.269915 -0.55944,-0.547725 -0.79367,-0.861782 -0.23346,-0.33596 -0.29439,-0.64479 -0.19839,-1.049541 0.079,-0.401244 0.19168,-0.801004 0.42887,-1.140577 0.22587,-0.267462 0.49147,-0.498573 0.71613,-0.767546 0.44484,-0.530746 0.8577,-1.0947 1.02997,-1.778174 0.14771,-0.925402 -0.10607,-1.651889 -0.83625,-2.269017 -0.9381,-0.720328 -1.94822,-1.333312 -2.93448,-1.984255 0,0 -3.68253,-1.445276 -3.68253,-1.445276 z" /><path
         style="fill:#ffff00;stroke-width:0.24"
         id="path1662-2"
         d="m -182.92129,7.4806362 c -0.33262,1.6773153 -0.0409,2.7481838 0.79101,4.2182418 0.75905,1.182387 1.7667,2.165081 2.72308,3.182771 0.40538,0.411346 0.59357,0.807332 0.40758,1.360371 -0.10495,0.253564 -0.25032,0.487162 -0.43508,0.689625 0,0 3.41532,2.052324 3.41532,2.052324 v 0 c 0.19763,-0.251861 0.36597,-0.525335 0.49053,-0.821084 0.24092,-0.646289 0.24684,-1.219656 -0.24413,-1.760564 -0.95,-1.030644 -2.01279,-1.964873 -2.80943,-3.129795 -0.85447,-1.359097 -1.22365,-2.317527 -0.85061,-3.9236285 0,0 -3.48827,-1.8682613 -3.48827,-1.8682613 z" /><path
         style="fill:#ffff00;stroke-width:0.24"
         id="path1664-7"
         d="m -113.72447,26.80826 c 0.41434,1.944039 1.31697,3.700449 2.55079,5.243139 0.5726,0.767903 1.48368,1.182209 2.06791,1.928109 0.37915,0.761833 -0.35113,1.340448 -0.88778,1.784173 -0.39688,0.305077 -0.83258,0.550783 -1.30226,0.7221 0,0 3.31318,2.211192 3.31318,2.211192 v 0 c 0.47762,-0.227221 0.92471,-0.513546 1.33519,-0.847426 0.66868,-0.593087 1.40087,-1.303472 1.15938,-2.276898 -0.46317,-0.896379 -1.4375,-1.264642 -2.10143,-2.000343 -1.27588,-1.443138 -2.23154,-3.119538 -2.60714,-5.028726 0,0 -3.52784,-1.73532 -3.52784,-1.73532 z" /><path
         style="fill:#ffff00;stroke-width:0.24"
         id="path1666-0"
         d="m -52.962224,5.9658162 c 0.3722,1.3202803 0.903811,2.5565253 1.787242,3.6101203 0.883011,0.8977825 1.717662,1.2352645 2.150133,2.4807145 0.15392,0.952408 -0.256591,1.792116 -0.831751,2.5195 -0.243271,0.266205 -0.1236,0.145218 -0.355981,0.365939 0,0 3.384515,2.071786 3.384515,2.071786 v 0 c 0.23978,-0.25597 0.11605,-0.117349 0.36864,-0.418131 0.615841,-0.835909 1.057482,-1.789384 0.981241,-2.852776 -0.32446,-1.442019 -1.029771,-1.746952 -2.091452,-2.652396 -0.934181,-0.955569 -1.493442,-2.1242235 -1.827193,-3.4170498 0,0 -3.565394,-1.707707 -3.565394,-1.707707 z" /><path
         style="fill:#ffff00;stroke-width:0.24"
         id="path1670-3"
         d="m -65.19519,52.152763 c -0.331081,1.454568 -0.0926,2.901775 0.28673,4.317111 0.548891,1.502992 0.861091,2.402967 0.589521,4.019148 -0.17557,0.784664 -0.537941,1.493171 -1.006121,2.139312 0,0 3.410294,2.006813 3.410294,2.006813 v 0 c 0.472771,-0.709931 0.847271,-1.477336 1.040961,-2.313347 0.308501,-1.637197 0.126671,-2.650707 -0.50904,-4.176475 -0.399911,-1.337183 -0.698671,-2.721041 -0.339451,-4.106362 0,0 -3.472894,-1.886199 -3.472894,-1.8862 z" /><path
         style="fill:#ffff00;stroke-width:0.24"
         id="path1672-6"
         d="m -102.00972,99.50588 c 2.554689,1.92975 5.449279,3.36574 8.252053,4.90486 -6.388093,-3.38659 -2.541468,-1.93301 -2.127807,-0.91934 0.208364,0.5106 -0.0217,1.01766 -0.205674,1.48633 -0.398024,0.7822 -0.999855,1.40309 -1.705576,1.90956 -0.06427,0.0409 -0.128548,0.0818 -0.192823,0.12268 0,0 3.344499,2.13594 3.344499,2.13594 v 0 c 0.0654,-0.0477 0.13072,-0.0955 0.19608,-0.14319 0.730571,-0.58076 1.350272,-1.27658 1.780242,-2.11217 0.352601,-0.85032 0.756041,-2.05859 -0.23693,-2.66621 -1.277872,-0.78195 -2.590684,-1.50531 -3.886025,-2.25797 -1.116777,-0.60281 -3.843589,-2.225111 0.928773,0.61437 0.314618,0.18719 -0.638049,-0.35927 -0.95294,-0.546 -0.299494,-0.17759 -0.596973,-0.35876 -0.889999,-0.54684 -0.225759,-0.1449 -0.443974,-0.30124 -0.665962,-0.45185 0,0 -3.637911,-1.530171 -3.637911,-1.53017 z" /><path
         style="fill:#ffff00;stroke-width:0.24"
         id="path1674-0"
         d="m -153.96219,47.519152 c 0.0473,1.560571 0.38151,2.399432 1.36616,3.611595 1.34294,1.341594 3.02491,2.258419 4.64578,3.216343 1.37935,0.858286 1.50341,1.335355 0.88752,2.80265 -0.31473,0.635157 -0.72518,1.215697 -1.22378,1.718353 0,0 3.38694,2.059292 3.38694,2.059292 v 0 c 0.49628,-0.563452 0.92027,-1.186093 1.24907,-1.862646 0.64476,-1.500897 0.85419,-2.323502 -0.66149,-3.317557 -1.61968,-0.949431 -3.30034,-1.840837 -4.70455,-3.103327 -0.95726,-1.036955 -1.41649,-1.885334 -1.41809,-3.32159 0,0 -3.52756,-1.803112 -3.52756,-1.803113 z" /><path
         style="fill:#0000ff;stroke-width:0.24"
         id="path1676-6"
         d="m -3.2300696,41.33425 c 0.1444801,1.556268 0.5535707,3.066997 1.0910814,4.529169 0.3204204,0.902488 0.8755011,1.735447 0.9624812,2.703219 -0.1005901,0.800094 -0.6298108,1.406951 -1.1850415,1.949556 -0.1785802,0.169722 -0.3684605,0.326112 -0.5628007,0.477139 0,0 3.36799433,2.10857 3.36799433,2.10857 v 0 c 0.19345025,-0.16865 0.3846105,-0.339939 0.56559077,-0.522137 0.6140808,-0.63831 1.1653215,-1.341707 1.3371017,-2.234372 0.008,-1.035767 -0.5496007,-1.90614 -0.9451812,-2.8381 C 0.84301565,46.102246 0.40312508,44.643416 0.29130493,43.1274 c 0,0 -3.52137453,-1.793149 -3.52137453,-1.79315 z" /><path
         style="fill:#0000ff;stroke-width:0.24"
         id="path1727-2"
         d="m -87.175699,62.025553 c 0.272951,1.677061 1.234822,3.098254 2.213703,4.44427 0.736561,1.032152 1.723272,1.870437 2.393643,2.948787 0.437971,0.989249 -0.20151,1.872929 -0.771421,2.652929 -0.34456,0.445888 -0.736581,0.850881 -1.148021,1.234628 0,0 3.382934,2.07897 3.382934,2.07897 v 0 c 0.408121,-0.415363 0.799761,-0.847492 1.146392,-1.316336 0.63582,-0.899358 1.319721,-1.892205 0.985081,-3.040716 -0.572301,-1.171683 -1.663012,-1.976094 -2.423853,-3.020608 -0.967102,-1.268605 -1.960093,-2.613765 -2.236953,-4.221993 0,0 -3.541505,-1.759931 -3.541505,-1.759931 z" /><path
         style="fill:#0000ff;stroke-width:0.24"
         id="path1729-6"
         d="m -28.013782,69.295125 c 0.1169,0.997704 -0.0181,1.991877 -0.25732,2.960076 -0.21684,0.658493 -0.338611,1.018046 -0.0791,1.693122 0.41306,0.790515 0.987521,1.480368 1.533152,2.181135 0.34112,0.414745 0.58154,0.862584 0.6102,1.402244 -0.003,0.33034 -0.12771,0.637146 -0.2428,0.941205 0,0 3.487105,1.930662 3.487105,1.930662 v 0 c 0.11874,-0.350721 0.25802,-0.699873 0.29045,-1.072023 0.0239,-0.614823 -0.12735,-1.154038 -0.513431,-1.645941 -0.53972,-0.686358 -1.110181,-1.35354 -1.570292,-2.097807 -0.38423,-0.685708 -0.23316,-0.713735 -0.0418,-1.458704 0.233851,-1.008356 0.376611,-2.034889 0.327391,-3.073159 0,0 -3.543605,-1.76081 -3.543605,-1.76081 z" /><path
         style="fill:#0000ff;stroke-width:0.24"
         id="path1731-1"
         d="m -65.35852,23.879896 c 1.553402,1.003909 3.145684,1.949326 4.635386,3.047599 0.61271,0.513075 1.384301,1.074531 1.397471,1.944918 -0.13784,0.554167 -0.5709,0.935835 -0.995431,1.284115 -0.24099,0.156838 -0.44054,0.39763 -0.708241,0.51207 -0.17263,0.02572 -0.30662,0.12061 -0.43058,0.238791 -0.205381,0.293071 -0.241981,0.650021 -0.264011,0.997268 -0.0378,0.385219 0.0674,0.709586 0.276621,1.028469 0.21519,0.285398 0.4703,0.53837 0.733071,0.7797 0.0236,0.02085 0.0472,0.0417 0.0708,0.06255 0,0 3.710395,1.460546 3.710395,1.460546 v 0 c -0.0272,-0.01455 -0.0545,-0.0291 -0.0817,-0.04365 -0.29255,-0.192071 -0.53629,-0.44468 -0.783171,-0.69066 -0.21421,-0.237863 -0.40672,-0.435462 -0.38871,-0.777245 0.003,-0.233112 -0.003,-0.485734 0.10464,-0.696656 0.13035,-0.07252 0.28059,-0.09853 0.400901,-0.190913 0.25045,-0.182077 0.48531,-0.384733 0.724581,-0.580964 0.49449,-0.435002 0.951501,-0.918972 1.147631,-1.564926 0.12304,-1.074719 -0.519801,-1.664181 -1.292692,-2.322634 -1.461302,-1.120127 -3.054454,-2.046124 -4.592146,-3.055453 0,0 -3.664814,-1.432918 -3.664814,-1.432918 z" /><path
         style="fill:#0000ff;stroke-width:0.24"
         id="path1733-8"
         d="m -138.31978,23.974261 c -0.0771,1.68274 0.42876,2.685836 1.44934,3.978523 0.85636,1.000781 1.86617,1.858854 2.68666,2.890393 0.5409,0.753864 0.44181,1.482349 0.0798,2.279867 -0.47566,0.883676 -1.12189,1.656445 -1.78576,2.402826 -0.50272,0.560121 -1.04665,1.080448 -1.59832,1.591609 -0.23393,0.216067 -0.12182,0.113059 -0.33617,0.309166 0,0 3.38045,2.085896 3.38045,2.085896 v 0 c 0.20824,-0.2012 0.099,-0.09576 0.32791,-0.316275 0.54648,-0.530426 1.09332,-1.061644 1.59434,-1.636057 0.67951,-0.782238 1.34699,-1.584896 1.84296,-2.499923 0.42183,-0.89067 0.61773,-1.746372 0.11247,-2.65852 -0.77669,-1.091531 -1.83735,-1.93326 -2.72808,-2.926935 -0.97784,-1.138838 -1.63614,-2.11373 -1.51735,-3.679118 0,0 -3.50822,-1.821452 -3.50822,-1.821452 z" /><path
         style="fill:#0000ff;stroke-width:0.24"
         id="path1735-7"
         d="m -141.05109,76.925683 c 0.32522,1.195939 0.56205,2.497799 1.33276,3.507216 0.18095,0.237011 0.40213,0.440417 0.6032,0.660625 1.87228,1.633613 4.12646,2.813007 6.30842,3.961365 1.31601,0.787316 -0.0473,-0.02995 -2.99897,-1.723804 -0.0875,-0.05023 0.23938,0.09297 0.25359,0.311129 -0.0528,0.216511 -0.2021,0.394229 -0.33971,0.564396 -0.17779,0.251074 -0.36729,0.490321 -0.57421,0.718238 -0.38784,0.387451 -0.80038,0.750311 -1.21836,1.104876 0,0 3.37122,2.097803 3.37122,2.097803 v 0 c 0.41873,-0.374741 0.83878,-0.748887 1.23751,-1.144989 0.21642,-0.23345 0.42255,-0.474462 0.60671,-0.734452 0.17602,-0.230262 0.34814,-0.46952 0.43834,-0.748169 0.41512,-1.717547 -2.74102,-2.237414 -3.8585,-2.923399 -1.32627,-0.713277 -0.12221,-0.0697 2.69983,1.577826 0.15766,0.09204 -0.32065,-0.174783 -0.47795,-0.267446 -0.6539,-0.385196 -1.28427,-0.810934 -1.86278,-1.303678 -0.49201,-0.468458 -0.74753,-0.641914 -1.08868,-1.228733 -0.47592,-0.818642 -0.64873,-1.795738 -0.88244,-2.698817 0,0 -3.54998,-1.729988 -3.54998,-1.729987 z" /><path
         style="fill:#0000ff;stroke-width:0.24"
         id="path1737-9"
         d="m -182.58502,41.12075 c -0.44531,1.161192 -0.45865,2.3897 -0.0843,3.563975 0.44285,1.023645 1.31964,1.670082 2.21468,2.274082 0.49539,0.343899 1.0566,0.605598 1.48134,1.041016 0.26537,0.303843 0.0958,0.560959 -0.1137,0.838457 -0.19358,0.244549 -0.41176,0.467693 -0.6335,0.686419 0,0 3.39408,2.076717 3.39408,2.076717 v 0 c 0.22783,-0.237167 0.45324,-0.477268 0.65401,-0.738261 0.2803,-0.380569 0.53672,-0.809628 0.34569,-1.290537 -0.33048,-0.567187 -0.91975,-0.845013 -1.46141,-1.183182 -0.8802,-0.556321 -1.78773,-1.125996 -2.32529,-2.049013 -0.45136,-1.052592 -0.4771,-2.211112 -0.0215,-3.276148 0,0 -3.45011,-1.943525 -3.45011,-1.943525 z" /><path
         style="fill:#0000ff;stroke-width:0.24"
         id="path1739-2"
         d="m -179.67287,101.35114 c -0.80785,1.22814 -0.9133,1.74842 0.0715,2.92116 0.94793,0.86619 2.07788,1.49004 3.0652,2.30723 0.67361,0.62541 0.84249,1.03766 0.40103,1.85589 -0.33233,0.51484 -0.80695,0.89745 -1.28807,1.26413 0,0 3.36014,2.11395 3.36014,2.11395 v 0 c 0.50768,-0.41354 0.99708,-0.85336 1.35029,-1.41242 0.46734,-0.84259 0.55397,-1.61679 -0.18441,-2.34299 -0.94742,-0.87077 -2.07768,-1.48946 -3.0905,-2.27753 -1.03933,-0.96453 -1.10986,-1.25881 -0.27171,-2.42777 0,0 -3.41348,-2.00165 -3.41348,-2.00165 z" /><path
         style="fill:#800080;stroke-width:0.24"
         id="path1741-0"
         d="m -75.939184,104.75542 c -0.566671,1.42515 -0.0649,2.75669 0.665151,4.00456 0.60417,0.93779 1.429062,1.6986 2.100072,2.58389 0.397621,0.58243 0.494781,0.89922 0.107381,1.50413 -0.373011,0.47748 -0.897072,0.78606 -1.428972,1.05626 -0.218791,0.0921 -0.11351,0.0533 -0.314781,0.11945 0,0 3.305265,2.21491 3.305265,2.21491 v 0 c 0.21315,-0.0989 0.10226,-0.0445 0.33187,-0.16486 0.569531,-0.33026 1.127091,-0.69502 1.523812,-1.23276 0.416031,-0.65496 0.540421,-1.24055 0.0952,-1.92623 -0.624311,-0.93463 -1.496522,-1.66482 -2.149583,-2.57936 -0.725071,-1.09486 -1.355021,-2.31003 -0.795091,-3.62374 0,0 -3.440294,-1.95625 -3.440294,-1.95625 z" /><path
         style="fill:#800080;stroke-width:0.24"
         id="path1792-2"
         d="m -119.56624,92.536224 c -1.18898,0.843269 -2.02571,1.418493 -2.64461,2.779127 -0.46637,1.604058 0.56651,2.866729 1.54751,4.019769 0.68733,0.73207 1.44033,1.39269 1.6975,2.3917 0.0837,0.53312 -0.0476,1.02596 -0.33316,1.47324 -0.0277,0.0355 -0.0555,0.0709 -0.0832,0.1064 0,0 3.42466,2.02729 3.42466,2.02729 v 0 c 0.0317,-0.0457 0.0634,-0.0913 0.0952,-0.13699 0.31889,-0.53611 0.49765,-1.11947 0.44665,-1.75097 -0.20124,-1.24433 -0.78808,-1.7297 -1.65286,-2.59507 -0.9186,-1.006291 -2.05617,-2.138221 -1.73039,-3.612841 0.54124,-1.245021 1.43064,-1.854388 2.55607,-2.55478 0,0 -3.32331,-2.146876 -3.3233,-2.146875 z" /><path
         style="fill:#800080;stroke-width:0.24"
         id="path1794-3"
         d="m -129.3324,-5.780183 c -0.60741,1.1477988 -0.93208,2.3481071 -0.94409,3.6425529 0.034,1.0526377 0.41423,2.0384617 0.72234,3.0316616 0.18915,0.5857942 0.28969,1.1698111 0.13847,1.770892 -0.0722,0.245572 -0.21401,0.4579017 -0.35843,0.6656752 0,0 3.43693,2.015362 3.43693,2.015362 v 0 c 0.16149,-0.2486171 0.31886,-0.5031873 0.40901,-0.7879014 0.18721,-0.6687032 0.15433,-1.3163619 -0.0655,-1.9796733 -0.28702,-0.9736611 -0.70574,-1.9182337 -0.78969,-2.9410875 -0.0407,-1.2351012 0.2497,-2.3797485 0.87967,-3.4519443 0,0 -3.4287,-1.9655372 -3.4287,-1.9655372 z" /><path
         style="fill:#800080;stroke-width:0.24"
         id="path1796-7"
         d="m -28.764363,-5.5990643 c -0.904401,0.5161005 -1.797622,1.0413367 -2.467153,1.850906 -0.631341,0.934904 -0.408351,1.9613378 -0.10954,2.9700041 0.28264,0.7981176 0.653341,1.5573063 0.862571,2.3798022 0.092,0.4097862 0.16743,0.8367369 0.0271,1.2426402 0,0 3.482164,1.9291062 3.482164,1.9291062 v 0 c 0.177251,-0.4757989 0.167821,-0.9677339 0.0521,-1.4608013 -0.188301,-0.8442704 -0.522341,-1.6252325 -0.869912,-2.4156252 -0.29496,-0.8647926 -0.61044,-1.7830496 -0.067,-2.6170597 0.646591,-0.7676549 1.523072,-1.2566274 2.405033,-1.7146064 0,0 -3.315404,-2.1643661 -3.315404,-2.1643661 z" /><path
         style="fill:#800080;stroke-width:0.24"
         id="path1798-5"
         d="m -32.792628,37.598592 c -0.822921,0.830845 -1.144392,1.628082 -1.013531,2.788984 0.33137,1.134417 1.061311,2.087904 1.682492,3.07631 0.572621,0.857962 0.4688,1.384435 -0.0195,2.245149 -0.340661,0.532156 -0.775581,0.991541 -1.232782,1.423746 -0.041,0.03865 -0.082,0.0773 -0.12302,0.115951 0,0 3.388624,2.082398 3.388624,2.082398 v 0 c 0.0395,-0.03987 0.079,-0.07974 0.118521,-0.11961 0.46623,-0.472125 0.906951,-0.972148 1.260541,-1.536078 0.489801,-0.863349 0.807831,-1.723597 0.20697,-2.624265 -0.60139,-0.965647 -1.311241,-1.8762 -1.748712,-2.933522 -0.22526,-1.043303 0.0604,-1.718144 0.847171,-2.434506 0,0 -3.366794,-2.084557 -3.366794,-2.084557 z" /><path
         style="fill:#800080;stroke-width:0.24"
         id="path1800-9"
         d="m -4.5965614,99.56559 c 1.2281616,1.26765 2.5205433,2.47214 3.72463482,3.76301 0.9964813,1.06188 0.6929309,1.72059 -0.0718001,2.81683 -1.00483132,1.21658 -2.25052292,2.19551 -3.54311462,3.08653 -0.3167304,0.21504 -0.6471508,0.40717 -0.9837213,0.58879 0,0 3.3223144,2.15698 3.3223144,2.15698 v 0 c 0.3296904,-0.20396 0.6554908,-0.41403 0.9695012,-0.64177 1.2968617,-0.95162 2.5479333,-1.98047 3.5932647,-3.21037 0.805461,-1.12588 1.3675418,-2.09686 0.3239304,-3.28575 -1.1936815,-1.29218 -2.50219325,-2.47151 -3.70864482,-3.75187 0,0 -3.62637468,-1.52238 -3.62637468,-1.52238 z" /><path
         style="fill:#800080;stroke-width:0.24"
         id="path1804-2"
         d="m -244.29379,24.381437 c 0.13237,1.391326 0.76701,2.627602 1.47927,3.802614 0.49255,0.86665 1.29768,1.591974 1.54807,2.584975 0.0503,0.199564 0.0614,0.407007 0.0922,0.610512 0.0571,1.372967 -0.56441,2.554919 -1.31998,3.651141 -0.47405,0.646988 -1.02255,1.233355 -1.60212,1.7859 -0.11181,0.102286 -0.22218,0.206119 -0.33259,0.309899 0,0 3.39536,2.086052 3.39536,2.086052 v 0 c 0.10576,-0.107548 0.21185,-0.214776 0.31871,-0.321233 0.57406,-0.58865 1.11801,-1.207546 1.59606,-1.877676 0.79472,-1.174239 1.44127,-2.443591 1.45093,-3.897014 -0.0457,-0.576999 -0.0166,-0.743426 -0.219,-1.282353 -0.29407,-0.783056 -0.93424,-1.368663 -1.35778,-2.075609 -0.7093,-1.10251 -1.38413,-2.263661 -1.51013,-3.597089 0,0 -3.53895,-1.780118 -3.53895,-1.780118 z" /><path
         style="fill:#800080;stroke-width:0.24"
         id="path1806-8"
         d="m -228.08993,50.257452 c 0.49861,1.271453 1.13437,2.479437 1.84489,3.643519 0.46437,0.744905 1.02866,1.418923 1.53524,2.133994 0.36331,0.506312 0.50003,1.044469 0.39127,1.654011 -0.11171,0.433647 -0.34634,0.808694 -0.60275,1.168826 0,0 3.42966,2.016413 3.42966,2.016413 v 0 c 0.2735,-0.411046 0.52482,-0.835964 0.66188,-1.315081 0.16318,-0.684022 0.11858,-1.330757 -0.25667,-1.943379 -0.4862,-0.739862 -1.07946,-1.400421 -1.57395,-2.134974 -0.72779,-1.123708 -1.38126,-2.298032 -1.85135,-3.555208 0,0 -3.57822,-1.668121 -3.57822,-1.668121 z" /><path
         style="fill:#ff0000;stroke-width:0.24"
         id="path1808-9"
         d="m -216.20227,101.30446 c 1.00581,0.60028 1.93794,1.29964 2.72736,2.16603 0.6007,0.71862 0.74032,1.50015 0.54803,2.39277 -0.1416,0.52002 -0.44411,0.95467 -0.76418,1.37716 -0.13753,0.21728 -0.33154,0.34723 -0.55194,0.46829 -0.24085,0.1184 -0.4459,0.18646 -0.59528,0.41844 -0.0773,0.17335 -0.14767,0.3849 -0.005,0.53858 1.18891,1.05168 2.62487,2.07851 4.2254,2.15459 0.36457,0.0102 0.72938,0.005 1.09402,0.001 0.1544,-0.001 0.3088,-0.002 0.46321,-0.002 0,0 -3.22223,-2.338 -3.22223,-2.338 v 0 c -0.15331,0.002 -0.30663,0.003 -0.45995,0.004 -0.35597,0.001 -0.7131,0.007 -1.06752,-0.0325 -0.12358,-0.0184 -0.47579,-0.13161 -0.36879,-0.0671 5.59713,3.37611 4.1986,2.3763 3.03658,1.77357 -0.0933,-0.0581 -0.16113,-0.0163 -0.25365,-0.0177 0.15962,-0.0897 0.33742,-0.16816 0.49327,-0.27162 0.25208,-0.16189 0.47392,-0.34622 0.63298,-0.60472 0.3375,-0.47553 0.6506,-0.9667 0.8176,-1.5325 0.23553,-0.979 0.19528,-1.88199 -0.40686,-2.73342 -0.74405,-0.91283 -1.65212,-1.64222 -2.65176,-2.2631 0,0 -3.69182,-1.4325 -3.69182,-1.4325 z" /><path
         style="fill:#ffff00;stroke-width:0.24"
         id="path5299-7"
         d="m -225.60925,79.994107 c -0.0318,2.050066 1.54054,3.700558 2.74999,5.20926 0.60072,0.926057 1.72413,1.677903 2.0303,2.789317 0.0415,0.150516 0.0402,0.309644 0.0603,0.464468 -0.046,0.929391 -0.47122,1.750446 -0.98639,2.502868 -0.34524,0.474543 -0.7563,0.894286 -1.17947,1.298681 -0.0409,0.03644 -0.0818,0.07289 -0.12265,0.109334 0,0 3.38434,2.089435 3.38434,2.089435 v 0 c 0.0411,-0.04026 0.0822,-0.08052 0.12331,-0.120787 0.42804,-0.433798 0.84529,-0.880933 1.19688,-1.380398 0.55316,-0.831066 0.99295,-1.731399 1.09825,-2.738363 -0.003,-0.188476 0.0203,-0.379291 -0.01,-0.565428 -0.19128,-1.196088 -1.41029,-2.013008 -2.05608,-2.940687 -0.94369,-1.140151 -2.55572,-2.873434 -2.78855,-4.369107 -0.0255,-0.163904 -0.002,-0.331745 -0.004,-0.497618 0,0 -3.49698,-1.850975 -3.49698,-1.850975 z" /><path
         style="fill:#800080;stroke-width:0.24"
         id="path7458"
         d="m 49.042814,71.638868 c -0.736118,1.858624 -0.475922,3.333927 0.06303,5.202116 0.485299,1.605521 1.407353,3.03317 1.91493,4.625835 0.249269,1.071099 0.0371,2.118087 -0.322196,3.132187 -0.143547,0.380082 -0.33718,0.737593 -0.512702,1.103122 0,0 3.464499,1.957687 3.464499,1.957687 v 0 c 0.16863,-0.383879 0.354235,-0.760526 0.500616,-1.153875 0.370284,-1.088321 0.608023,-2.210892 0.402153,-3.363216 -0.431842,-1.636975 -1.450634,-3.039359 -1.964756,-4.653412 -0.535543,-1.714077 -0.875133,-3.210693 -0.09525,-4.913911 0,0 -3.45032,-1.936533 -3.45032,-1.936533 z"
         transform="translate(-4.4289882,-0.78018299)" /><path
         style="opacity:1;fill:#000000;stroke-width:0.199517"
         id="path7458-6"
         d="m 107.36781,48.706305 c -0.17245,1.680033 0.35596,2.822243 1.19012,4.221173 0.73431,1.19723 1.7737,2.150689 2.52274,3.3324 0.43119,0.815586 0.49357,1.716097 0.43284,2.623157 -0.0298,0.341974 -0.10394,0.676925 -0.16208,1.014296 0,0 3.15857,0.808974 3.15857,0.808974 v 0 c 0.0487,-0.350747 0.11235,-0.699458 0.14144,-1.052884 0.0531,-0.969974 -0.006,-1.937814 -0.4205,-2.82937 -0.69908,-1.234946 -1.80915,-2.145918 -2.56803,-3.343559 -0.79769,-1.274231 -1.39333,-2.415806 -1.15232,-3.979224 0,0 -3.14277,-0.794963 -3.14277,-0.794963 z" /></g></g></svg>
