<?xml version="1.0" encoding="UTF-8" standalone="no"?>
<!-- Created with Inkscape (http://www.inkscape.org/) -->

<svg
   width="800"
   height="450"
   viewBox="0 0 211.66666 119.0625"
   version="1.1"
   id="svg5"
   inkscape:version="1.2.2 (b0a8486541, 2022-12-01)"
   sodipodi:docname="1.svg"
   xml:space="preserve"
   xmlns:inkscape="http://www.inkscape.org/namespaces/inkscape"
   xmlns:sodipodi="http://sodipodi.sourceforge.net/DTD/sodipodi-0.dtd"
   xmlns:xlink="http://www.w3.org/1999/xlink"
   xmlns="http://www.w3.org/2000/svg"
   xmlns:svg="http://www.w3.org/2000/svg"><sodipodi:namedview
     id="namedview7"
     pagecolor="#ffffff"
     bordercolor="#000000"
     borderopacity="0.25"
     inkscape:showpageshadow="2"
     inkscape:pageopacity="0.0"
     inkscape:pagecheckerboard="0"
     inkscape:deskcolor="#d1d1d1"
     inkscape:document-units="px"
     showgrid="false"
     inkscape:zoom="2"
     inkscape:cx="30.25"
     inkscape:cy="185"
     inkscape:window-width="1920"
     inkscape:window-height="1011"
     inkscape:window-x="0"
     inkscape:window-y="32"
     inkscape:window-maximized="1"
     inkscape:current-layer="layer1"
     inkscape:lockguides="false"
     showguides="true"><inkscape:grid
       type="xygrid"
       id="grid6001" /><sodipodi:guide
       position="65.747576,44.819278"
       orientation="0,-1"
       id="guide6005"
       inkscape:locked="false" /></sodipodi:namedview><defs
     id="defs2"><style
       type="text/css"
       id="style4676">
    .str0 {stroke:black;stroke-width:141.11;stroke-linecap:round}
    .fil0 {fill:none}
  </style><inkscape:perspective
       sodipodi:type="inkscape:persp3d"
       inkscape:vp_x="0 : 250 : 1"
       inkscape:vp_y="0 : 1000 : 0"
       inkscape:vp_z="500 : 250 : 1"
       inkscape:persp3d-origin="250 : 166.66667 : 1"
       id="perspective3902" /><linearGradient
       inkscape:collect="always"
       id="linearGradient3848"><stop
         style="stop-color:#cab796;stop-opacity:1;"
         offset="0"
         id="stop3850" /><stop
         style="stop-color:#cab796;stop-opacity:0;"
         offset="1"
         id="stop3852" /></linearGradient><radialGradient
       inkscape:collect="always"
       xlink:href="#linearGradient3848"
       id="radialGradient3854"
       cx="367.41251"
       cy="306.09787"
       fx="367.41251"
       fy="306.09787"
       r="219.16798"
       gradientTransform="matrix(1,0,0,0.97299204,604.07123,369.90169)"
       gradientUnits="userSpaceOnUse" /></defs><g
     inkscape:label="Calque 1"
     inkscape:groupmode="layer"
     id="layer1"><rect
       style="fill:#ffffff;fill-rule:evenodd;stroke:none;stroke-width:0.529167;stroke-linecap:round"
       id="rect3064"
       width="223.25388"
       height="130.50131"
       x="-5.1550002"
       y="-5.9712577" /><g
       style="clip-rule:evenodd;fill-rule:evenodd;image-rendering:optimizeQuality;shape-rendering:geometricPrecision;text-rendering:geometricPrecision"
       id="g4719"
       transform="matrix(0.01875736,0,0,0.01875736,-19.835969,43.03562)"><g
         id="Layer_x0020_1"
         transform="matrix(0.77295566,0,0,0.77295566,0.10103717,921.6989)"
         inkscape:label="bonhomme">
  <line
   y1="3847"
   x2="1207"
   x1="1601"
   y2="3137"
   class="fil0 str0"
   id="line4680" />
  <line
   y1="2524"
   x2="1207"
   x1="677"
   y2="3137"
   class="fil0 str0"
   id="line4682" />
  <line
   y1="3322"
   x2="677"
   x1="532"
   y2="2524"
   class="fil0 str0"
   id="line4684" />
  <line
   y1="3989"
   x2="532"
   x1="71"
   y2="3322"
   class="fil0 str0"
   id="line4686" />
  <line
   y1="2524"
   x2="789"
   x1="677"
   y2="913"
   class="fil0 str0"
   id="line4688" />
  <line
   y1="913"
   x2="1046"
   x1="789"
   y2="1683"
   class="fil0 str0"
   id="line4690" />
  <line
   y1="1683"
   x2="1745"
   x1="1046"
   y2="2094"
   class="fil0 str0"
   id="line4692" />
  <path
   id="line4694"
   class="fil0 str0"
   d="M 788.9887,912.99403 274.9905,1541.0121 Z" />
  
  <circle
   cy="417"
   cx="926"
   r="347"
   class="fil0 str0"
   id="circle4698" />
 </g></g><path
       style="fill:#000000;stroke-width:0.273174"
       id="path6131"
       d="m -5.9318858,54.82828 c -1.0331932,4.027734 6.88004271,4.090749 7.6630695,7.477296 1.3918221,2.870706 -3.7736679,6.564454 -1.83519359,9.369997 C 1.1017852,76.597399 9.0816234,78.895858 8.4811371,84.403622 8.1192116,86.445978 5.5105184,88.762164 6.1066844,90.649265 6.8889158,87.281006 10.765292,83.309828 7.8750242,80.630562 5.3091641,77.030012 0.03538781,74.485831 -0.07362469,69.934136 -0.20774299,67.055429 4.3475331,63.430864 1.4597039,61.074774 c -1.72541457,-2.356015 -7.530682,-2.72182 -7.2463233,-5.915912 z"
       inkscape:label="fil" /><path
       inkscape:connector-curvature="0"
       id="path3054-6"
       d="M 0.50839963,53.83551 C -7.7265034,57.315206 -17.110518,55.495106 -23.073435,49.261633 c -1.446589,-1.512225 -3.207725,-4.111242 -3.836268,-5.661414 -1.24071,-3.059966 -1.742514,-5.342621 -1.767331,-8.039404 -0.02139,-2.324432 0.441705,-5.109219 1.211106,-7.282931 1.197812,-3.384056 3.460232,-6.678509 6.199193,-9.027032 2.79134,-2.393439 5.704371,-3.879694 9.411704,-4.801939 0.364929,-0.09078 0.695893,-0.148187 0.735474,-0.12757 0.03958,0.02062 0.0062,0.36975 -0.07421,0.775849 l -0.146167,0.738363 -1.025592,0.274937 c -3.453303,0.925745 -6.565224,2.75932 -9.184914,5.411849 -3.305451,3.346874 -5.38143,8.06782 -5.629118,12.801067 -0.195529,3.736528 0.697834,7.331707 2.627063,10.572137 2.428973,4.079821 6.016281,6.879169 10.712371,8.359373 1.296539,0.40867 1.308333,0.411295 2.982731,0.663557 3.4273256,0.516354 6.7592376,0.10594 10.47755963,-1.290595 0.856637,-0.32174 3.50560997,-1.825537 4.38831697,-2.491207 6.0968814,-4.597822 9.0881834,-11.927566 7.8437484,-19.219954 -0.699113,-4.0968 -2.9744584,-8.119443 -6.1298924,-10.83721 l -0.662572,-0.570668 0.156256,-0.794209 0.156261,-0.794209 0.569599,0.441989 c 0.857059,0.665045 2.00885,1.774746 2.877333,2.772184 1.045846,1.201137 2.7139934,3.961573 3.3094954,5.476534 1.639574,4.171054 1.906596,8.416949 0.800336,12.726185 -0.982082,3.825519 -2.9767264,7.31841 -5.6666604,9.923081 -0.255869,0.247755 -0.529132,0.513673 -0.607252,0.59093 -1.118648,1.106237 -4.457432,3.270366 -6.14674397,3.984192 z M -7.4800884,45.818901 c -0.149268,0.06199 -0.866041,0.294527 -1.592827,0.516767 -0.829568,0.253668 -1.6470366,0.573611 -2.1962106,0.859556 -0.855995,0.445698 -0.886201,0.470769 -1.406314,1.167255 -0.29234,0.391476 -0.563509,0.703554 -0.602594,0.693511 -0.157859,-0.04056 -0.875715,-1.437284 -1.017649,-1.980017 -0.291975,-1.116481 -0.2427,-2.925928 0.123911,-4.550132 0.08412,-0.37267 0.322504,-1.416424 0.529743,-2.319453 0.919376,-4.006093 0.916344,-5.86949 -0.01316,-8.090221 -0.535196,-1.278666 -1.241158,-1.913821 -2.186034,-1.96678 -0.695895,-0.03901 -1.603591,0.643922 -1.816076,1.366372 -0.272401,0.926162 0.571492,2.317212 1.576747,2.599063 0.564539,0.158285 0.570347,0.206814 0.112787,0.942429 -0.37313,0.599878 -1.047591,1.044979 -1.604528,1.058891 -0.854262,0.02133 -1.657049,-0.621169 -2.117394,-1.694638 -0.572949,-1.336046 -0.139018,-2.916252 1.167409,-4.251247 0.54575,-0.557685 2.524613,-1.77179 3.279571,-2.012131 2.089971,-0.665357 3.648491,0.04077 4.758492,2.155963 1.2654586,2.41143 1.0910946,4.654365 -0.74251,9.55129 -0.292062,0.779999 -0.667693,1.905741 -0.834734,2.501651 -0.293369,1.046575 -0.516798,2.26958 -0.419151,2.294348 0.0261,0.0066 0.403626,-0.151039 0.838931,-0.350358 0.435305,-0.199321 1.27563,-0.572569 1.8673806,-0.829448 2.424597,-1.052512 3.074637,-1.651928 3.678737,-3.392239 l 0.290765,-0.837645 0.481582,0.81886 c 1.144632,1.946271 1.287196,3.14776 0.48397,4.078729 -0.306793,0.355588 -1.896032,1.360357 -2.640838,1.669632 z m 8.671593,-5.512113 c -0.02157,-0.09083 -0.21276597,-0.67112 -0.42485997,-1.289536 -0.212094,-0.618415 -0.520687,-1.526335 -0.685762,-2.017601 -0.165076,-0.491265 -0.46853,-1.384319 -0.67434,-1.984561 -0.20581202,-0.600244 -0.38692302,-1.165176 -0.40246502,-1.255406 -0.02558,-0.148442 -0.28635001,-0.0104 -2.74082001,1.4509 l -2.712557,1.614955 -0.113128,-0.637845 c -0.06222,-0.350816 -0.203464,-1.57416 -0.313876,-2.718543 -0.308872,-3.201341 -0.539125,-4.570271 -1.003342,-5.965199 -0.244034,-0.733292 -1.226768,-2.500093 -1.543613,-2.775169 -0.183634,-0.159426 -0.181108,-0.16269 0.287857,-0.371623 0.26022,-0.115925 0.730589,-0.231937 1.04527,-0.257795 1.43731,-0.118109 2.433055,0.92891 2.908193,3.057941 0.242437,1.086322 0.253557,1.927454 0.06724,5.086478 -0.04527,0.767613 -0.05297,1.444953 -0.0171,1.505198 0.05176,0.08695 0.417059,-0.09994 1.771358,-0.906236 1.70177,-1.01317 1.705949,-1.01634 1.635148,-1.227376 -0.03904,-0.116385 -0.316048,-0.92887 -0.615554,-1.805531 -0.299507,-0.87666 -0.73718,-2.164699 -0.972604,-2.86231 -0.235426,-0.697611 -0.679544,-2.0072 -0.986929,-2.910199 -0.307384,-0.902999 -0.557018,-1.658947 -0.554742,-1.679888 0.0031,-0.028 2.785534,-2.240487 2.925992,-2.326596 0.02278,-0.01403 0.106573,0.215325 0.321508,0.880092 0.0673,0.208161 0.304525,0.904701 0.527162,1.547868 0.22263601,0.643167 0.46035203,1.339415 0.52825703,1.547216 0.826386,2.528941 1.88382097,5.627356 1.96980697,5.771783 0.08797,0.147749 0.157795,0.126328 0.763255,-0.234141 0.366537,-0.218222 0.671223,-0.386923 0.67708,-0.374896 0.0059,0.01202 0.123394,0.411712 0.261195,0.888187 l 0.250545,0.866317 -0.656575,0.423534 -0.656576,0.423534 0.163848,0.490389 c 0.09012,0.269714 0.33011,0.975308 0.53332,1.567983 0.203209,0.592676 0.642717,1.879624 0.97668,2.859882 0.333965,0.980261 0.624559,1.811844 0.645766,1.847963 0.02117,0.03613 -0.677835,0.48635 -1.553427,1.000521 -1.446549,0.849456 -1.595569,0.919765 -1.631216,0.769709 z m -6.501894,-20.419616 c -0.371177,-0.128918 -0.418227,-0.178501 -0.708476,-0.746594 -0.685245,-1.341213 -0.455371,-2.46211 0.583044,-2.842995 0.37173,-0.136344 0.749448,0.08827 0.897443,0.533666 0.123538,0.371782 -0.130574,1.175662 -0.48797,1.543673 -0.236704,0.243736 -0.262975,0.327104 -0.158422,0.502717 0.303476,0.509732 0.811038,0.490782 1.169441,-0.04366 0.392294,-0.58498 0.326401,-1.265437 -0.264859,-2.735085 l -0.137335,-0.341357 0.444587,-0.264689 c 0.360966,-0.214906 0.449569,-0.235815 0.471035,-0.11119 0.03325,0.193086 0.139609,0.128271 0.254947,-0.155393 0.130199,-0.32017 0.618504,-0.5768 0.955858,-0.502361 l 0.284776,0.06284 0.178949,-0.338503 c 0.242211,-0.458166 0.694691,-0.718519 1.05462701,-0.60682 0.45275502,0.140502 0.54292802,0.270114 0.87641102,1.259714 0.343992,1.020773 0.468991,1.155525 0.782503,0.843571 0.15787897,-0.157097 0.14556997,-0.224301 -0.149891,-0.818389 -0.579853,-1.165911 -0.515402,-2.119312 0.177546,-2.62646 0.30313497,-0.22186 0.44292397,-0.26719 0.71372697,-0.231433 0.840687,0.110982 0.843226,1.369624 0.0044,2.186825 -0.159788,0.155661 -0.16883,0.237595 -0.04854,0.439643 0.213925,0.359318 0.645896,0.445464 0.933169,0.186095 0.124323,-0.112248 0.254472,-0.296571 0.289219,-0.409608 0.153331,-0.4988 0.317606,-0.23371 0.183318,0.29579 -0.08701,0.343045 -0.15699,0.423282 -0.598371,0.686063 -0.405829,0.241616 -0.566801,0.286606 -0.855846,0.23922 l -0.356008,-0.05837 -0.113201,0.337716 c -0.14557697,0.434299 -0.65350097,0.758588 -1.03614397,0.661537 -0.312334,-0.07922 -0.468312,-0.32121 -0.70952702,-1.1008 -0.33306601,-1.076407 -0.69779101,-1.451075 -1.02194801,-1.049796 -0.114761,0.142063 -0.106659,0.266044 0.03738,0.571861 0.101122,0.214772 0.324322,0.81461 0.495951,1.333001 l 0.31205201,0.942533 -0.40806001,0.276426 -0.408068,0.27642 -0.18443,-0.54425 c -0.74405,-2.195655 -0.665289,-2.020617 -0.94065,-2.090459 -0.197108,-0.04999 -0.285938,-0.02041 -0.410548,0.136725 -0.142734,0.179981 -0.11737,0.32426 0.247673,1.408863 0.223676,0.664591 0.426724,1.285271 0.451207,1.379294 0.03454,0.132617 -0.04643,0.225101 -0.361146,0.412468 l -0.405668,0.24152 -0.132589,-0.33573 -0.132589,-0.33573 -0.182779,0.490274 c -0.154734,0.41505 -0.259943,0.543134 -0.685691,0.834774 -0.48746,0.333917 -0.515128,0.340252 -0.900492,0.206408 z m 0.261684,-1.880576 c 0.229644,-0.369117 0.273503,-0.718122 0.134488,-1.070134 -0.152141,-0.385243 -0.443351,-0.475077 -0.615281,-0.189807 -0.111154,0.18443 -0.08081,0.914919 0.05714,1.375337 0.08627,0.287955 0.190348,0.259607 0.423659,-0.115396 z m 6.756801,-4.032055 c 0.237867,-0.382336 0.274295,-0.873228 0.08801,-1.186115 -0.167904,-0.28202 -0.388919,-0.319644 -0.565007,-0.09619 -0.09381,0.119063 -0.02762,1.374981 0.08219,1.559437 0.07474,0.125522 0.198221,0.03883 0.394802,-0.277134 z m -8.858425,1.582474 -0.950288,-0.0044 0.159274,-0.471377 c 0.0876,-0.259256 0.177864,-0.484353 0.200589,-0.50021 0.02272,-0.01586 0.320022,0.01449 0.660666,0.06733 0.340642,0.05289 0.751948,0.113576 0.914012,0.134837 l 0.294663,0.03865 -0.07114,0.322425 c -0.03913,0.177333 -0.113075,0.343742 -0.164315,0.369796 -0.05128,0.02599 -0.520798,0.04539 -1.043453,0.04295 z"
       style="fill:#c4b190;fill-opacity:1;stroke-width:0.0969499" /></g></svg>
